# xmcd
#
# Track frame offsets:
#	150
#	21594
#	41482
#	60090
#	81812
#	105000
#	132810
#	154872
#	170540
#	188052
#	209565
#	230459
#	255173
#	278535
#	300429
#
# Disc length: 4336 seconds
#
# Revision: 0
# Processed by: cddbd v1.5.1PL0 Copyright (c) Steve Scherf et al.
# Submitted via: audiograbber 1.81.03
#
DISCID=b110ee0f
DTITLE=Van Zant - Brother To Brother
DYEAR=1900
DGENRE=Blues
TTITLE0=Van Zant - Rage
TTITLE1=Van Zant - Can't Say It Loud Enough
TTITLE2=Van Zant - Show Me
TTITLE3=Van Zant - I'm A Want You Kinda Man
TTITLE4=Van Zant - Right Side Up
TTITLE5=Van Zant - Brother To Brother
TTITLE6=Van Zant - Livin' A Lie
TTITLE7=Van Zant - That Was Yesterday
TTITLE8=Van Zant - Downright And Dangerous
TTITLE9=Van Zant - Black Bottom Road
TTITLE10=Van Zant - Friend
TTITLE11=Ministry - Psalm 69
TTITLE12=Ministry - Just One Fix
TTITLE13=Ministry - Jesus Built My Hotrod
TTITLE14=Ministry - N.W.O.
EXTD=
EXTT0=
EXTT1=
EXTT2=
EXTT3=
EXTT4=
EXTT5=
EXTT6=
EXTT7=
EXTT8=
EXTT9=
EXTT10=
EXTT11=
EXTT12=
EXTT13=
EXTT14=
PLAYORDER=
